<?xml version="1.0" encoding="utf-8"?>
<!-- Generator: Adobe Illustrator 24.3.0, SVG Export Plug-In . SVG Version: 6.00 Build 0)  -->
<svg version="1.1" id="Layer_1" xmlns="http://www.w3.org/2000/svg" xmlns:xlink="http://www.w3.org/1999/xlink" x="0px" y="0px"
	 viewBox="0 0 800 800" style="enable-background:new 0 0 800 800;" xml:space="preserve">
<style type="text/css">
	.st0{display:none;opacity:0.1;}
	.st1{display:inline;fill:#282A2D;}
	.st2{fill:url(#SVGID_1_);}
	.st3{fill:url(#SVGID_2_);}
	.st4{fill:url(#SVGID_3_);}
	.st5{fill:url(#SVGID_4_);}
	.st6{fill:#F5F4F5;}
	.st7{font-family:'Nunito-ExtraBold';}
	.st8{font-size:100px;}
	.st9{letter-spacing:2;}
</style>
<g class="st0">
	<path class="st1" d="M436.4,476l-64.9,64.9l-56.3-56.3c-4.7-4.7-4.7-12.4,0-17.2l56.3-56.3L436.4,476z"/>
	<path class="st1" d="M491.7,420.6L435.4,477l-64.9-64.9l64.9-64.9l56.3,56.3C496.5,408.2,496.5,415.9,491.7,420.6z"/>
	<path class="st1" d="M434.6,346.2l-64.9,64.9l-56.3-56.3c-4.7-4.7-4.7-12.4,0-17.2l56.3-56.3L434.6,346.2z"/>
</g>
<linearGradient id="SVGID_1_" gradientUnits="userSpaceOnUse" x1="532.907" y1="355.8" x2="594.907" y2="355.8" gradientTransform="matrix(1 0 0 -1 0 800)">
	<stop  offset="0" style="stop-color:#00A19A"/>
	<stop  offset="1" style="stop-color:#008D36"/>
</linearGradient>
<path class="st2" d="M594.8,444.2l-32.2,32.2l-28-28c-2.4-2.4-2.4-6.2,0-8.5l28-28L594.8,444.2z"/>
<g>
	
		<linearGradient id="SVGID_2_" gradientUnits="userSpaceOnUse" x1="337.9053" y1="234.9889" x2="338.3344" y2="235.2457" gradientTransform="matrix(1 0 0 -1 0 800)">
		<stop  offset="3.926918e-04" style="stop-color:#00A19A"/>
		<stop  offset="0.1987" style="stop-color:#009C81"/>
		<stop  offset="0.5737" style="stop-color:#009456"/>
		<stop  offset="0.8518" style="stop-color:#008F3F"/>
		<stop  offset="1" style="stop-color:#008D36"/>
	</linearGradient>
	<path class="st3" d="M622.3,415.8l-28,28l-32.2-32.2l32.2-32.2l28,28C624.7,409.6,624.7,413.4,622.3,415.8z"/>
	
		<linearGradient id="SVGID_3_" gradientUnits="userSpaceOnUse" x1="561.4249" y1="388.4001" x2="624.5716" y2="388.4001" gradientTransform="matrix(1 0 0 -1 0 800)">
		<stop  offset="0" style="stop-color:#FFFFFF"/>
		<stop  offset="1" style="stop-color:#000000"/>
	</linearGradient>
	<path class="st4" d="M622.3,415.8l-6.9,7l-6.9,7.1c-4.6,4.7-9.2,9.5-13.8,14.1l-0.4,0.4L594,444l-8.1-8l-8-8.1
		c-5.4-5.4-10.7-10.8-16-16.2l-0.2-0.2l0.2-0.2c5.4-5.3,10.9-10.6,16.2-16l8-8.1l8-8.2l0.3-0.3l0.3,0.3c2.9,2.8,5.8,5.7,8.7,8.6
		l8.6,8.7l8.5,8.8l2.1,2.2c0.7,0.8,1.2,1.7,1.4,2.7C624.5,412.1,623.8,414.3,622.3,415.8z M622.3,415.8c1.4-1.4,2-3.6,1.6-5.6
		c-0.2-1-0.7-1.9-1.4-2.6s-1.5-1.4-2.2-2.1l-8.8-8.5l-8.7-8.6c-2.9-2.9-5.8-5.8-8.6-8.7h0.5l-8.2,8l-8.1,8
		c-5.4,5.4-10.7,10.8-16,16.2v-0.5c5.4,5.3,10.8,10.6,16.2,16l8.1,8l8,8.1H594c4.7-4.7,9.4-9.2,14.1-13.8l7.1-6.9L622.3,415.8z"/>
</g>
<linearGradient id="SVGID_4_" gradientUnits="userSpaceOnUse" x1="532.0014" y1="421.2" x2="594.0014" y2="421.2" gradientTransform="matrix(1 0 0 -1 0 800)">
	<stop  offset="0" style="stop-color:#00A19A"/>
	<stop  offset="1" style="stop-color:#008D36"/>
</linearGradient>
<path class="st5" d="M593.9,378.8L561.7,411l-28-28c-2.4-2.4-2.4-6.2,0-8.5l28-28L593.9,378.8z"/>
<text transform="matrix(1 0 0 1 187.7021 443.4503)" class="st6 st7 st8 st9">Kluster</text>
</svg>
